<?xml version="1.0" standalone="no"?>
<!DOCTYPE svg PUBLIC "-//W3C//DTD SVG 20010904//EN"
 "http://www.w3.org/TR/2001/REC-SVG-20010904/DTD/svg10.dtd">
<svg version="1.0" xmlns="http://www.w3.org/2000/svg"
 width="700.000000pt" height="700.000000pt" viewBox="0 0 700.000000 700.000000"
 preserveAspectRatio="xMidYMid meet">
<metadata>
Created by potrace 1.11, written by Peter Selinger 2001-2013
</metadata>
<g transform="translate(0.000000,700.000000) scale(0.100000,-0.100000)"
fill="#000000" stroke="none">
<path d="M3775 5989 c-942 -98 -1754 -644 -2145 -1443 -153 -314 -240 -660
-240 -958 0 -48 -5 -90 -10 -93 -6 -4 -54 -17 -108 -30 -503 -122 -883 -400
-976 -714 -22 -76 -21 -203 4 -283 129 -420 814 -657 1563 -542 l109 17 80
-87 c230 -248 594 -500 913 -632 759 -313 1626 -282 2350 84 236 120 450 272
641 455 411 395 654 861 740 1422 23 151 23 489 0 640 -82 532 -302 974 -675
1359 -445 457 -1043 740 -1710 806 -119 12 -419 11 -536 -1z m-598 -1761 c57
-26 127 -106 155 -176 32 -81 32 -233 0 -313 -47 -118 -154 -199 -261 -199
-172 1 -304 177 -288 385 18 243 209 390 394 303z"/>
</g>
</svg>
